<?xml version="1.0" encoding="UTF-8" standalone="no"?>
<svg
   viewBox="0 0 512 512"
   version="1.1"
   id="svg4"
   sodipodi:docname="eraser.svg"
   inkscape:version="1.2.2 (b0a8486541, 2022-12-01)"
   inkscape:export-filename="eraser.png"
   inkscape:export-xdpi="6.0000005"
   inkscape:export-ydpi="6.0000005"
   xmlns:inkscape="http://www.inkscape.org/namespaces/inkscape"
   xmlns:sodipodi="http://sodipodi.sourceforge.net/DTD/sodipodi-0.dtd"
   xmlns="http://www.w3.org/2000/svg"
   xmlns:svg="http://www.w3.org/2000/svg">
  <defs
     id="defs8" />
  <sodipodi:namedview
     id="namedview6"
     pagecolor="#ffffff"
     bordercolor="#666666"
     borderopacity="1.0"
     inkscape:showpageshadow="2"
     inkscape:pageopacity="0.0"
     inkscape:pagecheckerboard="0"
     inkscape:deskcolor="#d1d1d1"
     showgrid="false"
     inkscape:zoom="1.5273438"
     inkscape:cx="100.50128"
     inkscape:cy="256"
     inkscape:window-width="1920"
     inkscape:window-height="1011"
     inkscape:window-x="0"
     inkscape:window-y="0"
     inkscape:window-maximized="1"
     inkscape:current-layer="svg4" />
  <!--! Font Awesome Pro 6.3.0 by @fontawesome - https://fontawesome.com License - https://fontawesome.com/license (Commercial License) Copyright 2023 Fonticons, Inc. -->
  <path
     d="M 258.83737,101.77142 76.8159,283.79289 c -19.505087,19.50509 -19.505087,51.10333 0,70.60842 l 62.41628,62.41628 c 9.36244,9.36244 22.07976,14.5898 35.34322,14.5898 h 82.15542 7.33392 167.43166 c 13.80961,0 24.96652,-11.15691 24.96652,-24.96651 0,-13.8096 -11.15691,-24.96651 -24.96652,-24.96651 H 334.67315 L 436.64575,279.5798 c 19.50508,-19.50509 19.50508,-51.10333 0,-70.60842 L 329.52381,101.77142 c -19.50509,-19.505086 -51.10333,-19.505086 -70.60842,0 z m 5.22737,279.78097 h -7.33392 -82.23344 L 112.0811,319.13611 209.37247,221.84474 316.57243,329.0447 Z"
     id="path2"
     style="stroke-width:0.780203" />
  <rect
     style="fill:#000000;fill-opacity:0;stroke:#000000;stroke-width:20.1246;stroke-linecap:round;stroke-linejoin:round;stroke-dasharray:none;stroke-opacity:1"
     id="rect112"
     width="491.87537"
     height="491.8754"
     x="10.062319"
     y="10.062319" />
</svg>
