<?xml version="1.0" encoding="UTF-8" standalone="no"?>
<svg
   viewBox="0 0 512 512"
   version="1.1"
   id="svg1271"
   sodipodi:docname="pause.svg"
   width="512"
   height="512"
   inkscape:version="1.2.2 (b0a8486541, 2022-12-01)"
   inkscape:export-filename="pause.png"
   inkscape:export-xdpi="6.0000005"
   inkscape:export-ydpi="6.0000005"
   xmlns:inkscape="http://www.inkscape.org/namespaces/inkscape"
   xmlns:sodipodi="http://sodipodi.sourceforge.net/DTD/sodipodi-0.dtd"
   xmlns="http://www.w3.org/2000/svg"
   xmlns:svg="http://www.w3.org/2000/svg">
  <defs
     id="defs1275" />
  <sodipodi:namedview
     id="namedview1273"
     pagecolor="#ffffff"
     bordercolor="#666666"
     borderopacity="1.0"
     inkscape:showpageshadow="2"
     inkscape:pageopacity="0.0"
     inkscape:pagecheckerboard="0"
     inkscape:deskcolor="#d1d1d1"
     showgrid="false"
     inkscape:zoom="1.5273438"
     inkscape:cx="4.9104859"
     inkscape:cy="256"
     inkscape:window-width="1920"
     inkscape:window-height="1011"
     inkscape:window-x="0"
     inkscape:window-y="0"
     inkscape:window-maximized="1"
     inkscape:current-layer="svg1271" />
  <!--! Font Awesome Pro 6.3.0 by @fontawesome - https://fontawesome.com License - https://fontawesome.com/license (Commercial License) Copyright 2023 Fonticons, Inc. -->
  <path
     d="m 144,64 c -26.5,0 -48,21.5 -48,48 v 288 c 0,26.5 21.5,48 48,48 h 32 c 26.5,0 48,-21.5 48,-48 V 112 C 224,85.5 202.5,64 176,64 Z m 192,0 c -26.5,0 -48,21.5 -48,48 v 288 c 0,26.5 21.5,48 48,48 h 32 c 26.5,0 48,-21.5 48,-48 V 112 C 416,85.5 394.5,64 368,64 Z"
     id="path1269" />
  <rect
     style="fill:#000000;fill-opacity:0;stroke:#000000;stroke-width:20.1246;stroke-linecap:round;stroke-linejoin:round;stroke-dasharray:none;stroke-opacity:1"
     id="rect112"
     width="491.87537"
     height="491.8754"
     x="10.0623"
     y="10.0623" />
</svg>
