<?xml version="1.0" encoding="UTF-8" standalone="no"?>
<svg
   viewBox="0 0 512 512"
   version="1.1"
   id="svg3288"
   sodipodi:docname="pen.svg"
   inkscape:version="1.2.2 (b0a8486541, 2022-12-01)"
   inkscape:export-filename="pen.png"
   inkscape:export-xdpi="6"
   inkscape:export-ydpi="6"
   xmlns:inkscape="http://www.inkscape.org/namespaces/inkscape"
   xmlns:sodipodi="http://sodipodi.sourceforge.net/DTD/sodipodi-0.dtd"
   xmlns="http://www.w3.org/2000/svg"
   xmlns:svg="http://www.w3.org/2000/svg">
  <defs
     id="defs3292" />
  <sodipodi:namedview
     id="namedview3290"
     pagecolor="#ffffff"
     bordercolor="#666666"
     borderopacity="1.0"
     inkscape:showpageshadow="2"
     inkscape:pageopacity="0.0"
     inkscape:pagecheckerboard="0"
     inkscape:deskcolor="#d1d1d1"
     showgrid="false"
     inkscape:zoom="1.5273438"
     inkscape:cx="100.50128"
     inkscape:cy="256"
     inkscape:window-width="1920"
     inkscape:window-height="1011"
     inkscape:window-x="0"
     inkscape:window-y="0"
     inkscape:window-maximized="1"
     inkscape:current-layer="svg3288" />
  <!--! Font Awesome Pro 6.3.0 by @fontawesome - https://fontawesome.com License - https://fontawesome.com/license (Commercial License) Copyright 2023 Fonticons, Inc. -->
  <path
     d="m 329.2027,93.822161 -33.12106,33.121059 88.96151,88.96151 33.12106,-33.12106 c 17.10798,-17.10798 17.10798,-44.82291 0,-61.9309 L 391.20203,93.822161 c -17.10799,-17.107983 -44.82292,-17.107983 -61.9309,0 z M 280.61602,142.40883 121.10118,301.9921 c -7.11692,7.11692 -12.31774,15.94464 -15.19189,25.59355 l -24.224903,82.32361 c -1.7108,5.81672 -0.13687,12.04402 4.10591,16.2868 4.24278,4.24278 10.47009,5.81672 16.218373,4.17435 l 82.32362,-24.2249 c 9.6489,-2.87414 18.47662,-8.07497 25.59354,-15.19189 L 369.57754,231.37035 Z"
     id="path3286"
     style="stroke-width:0.684319" />
  <rect
     style="fill:#000000;fill-opacity:0;stroke:#000000;stroke-width:20.1246;stroke-linecap:round;stroke-linejoin:round;stroke-dasharray:none;stroke-opacity:1"
     id="rect112"
     width="491.87537"
     height="491.8754"
     x="10.0623"
     y="10.0623" />
</svg>
