<?xml version="1.0" encoding="UTF-8" standalone="no"?>
<svg
   viewBox="0 0 1024 512"
   version="1.1"
   id="svg4"
   sodipodi:docname="route-dfsid.svg"
   width="1024"
   height="512"
   inkscape:version="1.2.2 (b0a8486541, 2022-12-01)"
   inkscape:export-filename="route-dfsid.png"
   inkscape:export-xdpi="5.9982319"
   inkscape:export-ydpi="5.9982319"
   xmlns:inkscape="http://www.inkscape.org/namespaces/inkscape"
   xmlns:sodipodi="http://sodipodi.sourceforge.net/DTD/sodipodi-0.dtd"
   xmlns="http://www.w3.org/2000/svg"
   xmlns:svg="http://www.w3.org/2000/svg">
  <defs
     id="defs8" />
  <sodipodi:namedview
     id="namedview6"
     pagecolor="#ffffff"
     bordercolor="#666666"
     borderopacity="1.0"
     inkscape:showpageshadow="2"
     inkscape:pageopacity="0.0"
     inkscape:pagecheckerboard="0"
     inkscape:deskcolor="#d1d1d1"
     showgrid="false"
     inkscape:zoom="1.5273438"
     inkscape:cx="376.14321"
     inkscape:cy="250.76214"
     inkscape:window-width="1920"
     inkscape:window-height="1011"
     inkscape:window-x="0"
     inkscape:window-y="0"
     inkscape:window-maximized="1"
     inkscape:current-layer="svg4" />
  <!--! Font Awesome Pro 6.3.0 by @fontawesome - https://fontawesome.com License - https://fontawesome.com/license (Commercial License) Copyright 2023 Fonticons, Inc. -->
  <path
     d="m 475.14322,119.03549 c 0,42.97261 -50.59126,107.08913 -72.41998,132.68437 -3.25291,3.76652 -8.04667,5.22177 -12.41241,4.28014 h -79.52502 c -15.1517,0 -27.39291,12.2412 -27.39291,27.3929 0,15.1517 12.24121,27.39291 27.39291,27.39291 h 82.1787 c 45.3695,0 82.17871,36.80921 82.17871,82.1787 0,45.3695 -36.80921,82.17871 -82.17871,82.17871 H 156.35832 c 7.44744,-8.47468 16.52134,-19.34623 25.68084,-31.50183 5.39298,-7.19064 10.95716,-15.0661 16.26454,-23.28397 h 194.66081 c 15.1517,0 27.39291,-12.24121 27.39291,-27.39291 0,-15.15169 -12.24121,-27.3929 -27.39291,-27.3929 h -82.1787 c -45.3695,0 -82.17871,-36.80921 -82.17871,-82.17871 0,-45.36949 36.80921,-82.17871 82.17871,-82.17871 h 34.06992 c -17.97659,-26.96488 -34.06992,-57.95311 -34.06992,-82.1787 0,-45.3695 36.80921,-82.178714 82.1787,-82.178714 45.3695,0 82.17871,36.809214 82.17871,82.178714 z M 137.09768,455.54018 c -3.25291,3.68092 -6.1634,6.93383 -8.64588,9.67312 l -1.54086,1.71205 -0.1712,-0.1712 c -5.13617,3.93773 -12.49801,3.42411 -17.12057,-1.54085 C 88.047264,441.75812 36.856776,381.40813 36.856776,338.17871 36.856776,292.80921 73.66599,256 119.03549,256 c 45.36949,0 82.1787,36.80921 82.1787,82.17871 0,25.68085 -18.06219,57.35389 -37.23722,83.80516 -9.15951,12.58362 -18.57582,23.96879 -26.36567,32.95709 z m 9.33071,-117.36147 a 27.392904,27.392904 0 1 0 -54.785808,0 27.392904,27.392904 0 1 0 54.785808,0 z M 392.96451,146.42839 a 27.392904,27.392904 0 1 0 0,-54.785808 27.392904,27.392904 0 1 0 0,54.785808 z"
     id="path2"
     style="stroke-width:0.856028" />
  <text
     xml:space="preserve"
     style="font-size:266.667px;line-height:0.85;font-family:arial;-inkscape-font-specification:arial;letter-spacing:-20px"
     x="763.33325"
     y="241.45093"
     id="text114"><tspan
       sodipodi:role="line"
       x="763.33325"
       y="241.45093"
       style="font-style:normal;font-variant:normal;font-weight:bold;font-stretch:expanded;font-size:266.667px;font-family:'Iosevka Comfy Wide';-inkscape-font-specification:'Iosevka Comfy Wide Bold Expanded';text-align:center;text-anchor:middle"
       id="tspan340">DFS</tspan><tspan
       sodipodi:role="line"
       x="753.33325"
       y="468.68274"
       style="font-style:normal;font-variant:normal;font-weight:bold;font-stretch:expanded;font-size:266.667px;font-family:'Iosevka Comfy Wide';-inkscape-font-specification:'Iosevka Comfy Wide Bold Expanded';text-align:center;text-anchor:middle"
       id="tspan344">ID</tspan></text>
  <rect
     style="fill:#000000;fill-opacity:0;stroke:#000000;stroke-width:20.1246;stroke-linecap:round;stroke-linejoin:round;stroke-dasharray:none;stroke-opacity:1"
     id="rect112"
     width="1004.1773"
     height="491.8754"
     x="10.0623"
     y="10.0623" />
</svg>
