<?xml version="1.0" encoding="UTF-8" standalone="no"?>
<svg
   viewBox="0 0 1024 512"
   version="1.1"
   id="svg4"
   sodipodi:docname="route-dfs.svg"
   width="1024"
   height="512"
   inkscape:version="1.2.2 (b0a8486541, 2022-12-01)"
   inkscape:export-filename="route-dfs.png"
   inkscape:export-xdpi="5.9982319"
   inkscape:export-ydpi="5.9982319"
   xmlns:inkscape="http://www.inkscape.org/namespaces/inkscape"
   xmlns:sodipodi="http://sodipodi.sourceforge.net/DTD/sodipodi-0.dtd"
   xmlns="http://www.w3.org/2000/svg"
   xmlns:svg="http://www.w3.org/2000/svg">
  <defs
     id="defs8" />
  <sodipodi:namedview
     id="namedview6"
     pagecolor="#ffffff"
     bordercolor="#666666"
     borderopacity="1.0"
     inkscape:showpageshadow="2"
     inkscape:pageopacity="0.0"
     inkscape:pagecheckerboard="0"
     inkscape:deskcolor="#d1d1d1"
     showgrid="false"
     inkscape:zoom="1.5273438"
     inkscape:cx="408.22505"
     inkscape:cy="233.08439"
     inkscape:window-width="1920"
     inkscape:window-height="1011"
     inkscape:window-x="0"
     inkscape:window-y="0"
     inkscape:window-maximized="1"
     inkscape:current-layer="svg4" />
  <!--! Font Awesome Pro 6.3.0 by @fontawesome - https://fontawesome.com License - https://fontawesome.com/license (Commercial License) Copyright 2023 Fonticons, Inc. -->
  <path
     d="m 475.01023,119.11861 c 0,42.94653 -50.56056,107.02414 -72.37604,132.60385 -3.25093,3.76423 -8.04178,5.2186 -12.40487,4.27754 h -79.47676 c -15.14251,0 -27.37628,12.23377 -27.37628,27.37628 0,15.1425 12.23377,27.37628 27.37628,27.37628 h 82.12883 c 45.34197,0 82.12884,36.78687 82.12884,82.12883 0,45.34197 -36.78687,82.12884 -82.12884,82.12884 h -236.4626 c 7.44292,-8.46953 16.51131,-19.3345 25.66526,-31.48272 5.3897,-7.18627 10.95051,-15.05695 16.25466,-23.26984 h 194.54268 c 15.14251,0 27.37628,-12.23377 27.37628,-27.37628 0,-15.1425 -12.23377,-27.37627 -27.37628,-27.37627 h -82.12883 c -45.34196,0 -82.12884,-36.78688 -82.12884,-82.12884 0,-45.34196 36.78688,-82.12884 82.12884,-82.12884 h 34.04924 c -17.96568,-26.94852 -34.04924,-57.91794 -34.04924,-82.12883 0,-45.341967 36.78687,-82.128841 82.12883,-82.128841 45.34197,0 82.12884,36.786874 82.12884,82.128841 z M 137.16984,455.41908 c -3.25093,3.67869 -6.15966,6.92962 -8.64064,9.66725 l -1.53991,1.71102 -0.17111,-0.1711 c -5.13305,3.93534 -12.49042,3.42203 -17.11017,-1.53992 C 88.14919,441.64539 36.989769,381.33203 36.989769,338.12884 36.989769,292.78687 73.776643,256 119.11861,256 c 45.34196,0 82.12883,36.78687 82.12883,82.12884 0,25.66526 -18.05123,57.31908 -37.21463,83.7543 -9.15394,12.57598 -18.56454,23.95424 -26.34967,32.93709 z m 9.32504,-117.29024 a 27.376279,27.376279 0 1 0 -54.752554,0 27.376279,27.376279 0 1 0 54.752554,0 z M 392.88139,146.49488 a 27.376279,27.376279 0 1 0 0,-54.752554 27.376279,27.376279 0 1 0 0,54.752554 z"
     id="path2"
     style="stroke-width:0.855509" />
  <text
     xml:space="preserve"
     style="font-size:316.762px;line-height:1.25;font-family:arial;-inkscape-font-specification:arial;letter-spacing:-47.5143px;stroke-width:0.950286"
     x="524.88544"
     y="372.40994"
     id="text114"><tspan
       sodipodi:role="line"
       id="tspan112"
       x="524.88544"
       y="372.40994"
       style="font-style:normal;font-variant:normal;font-weight:bold;font-stretch:expanded;font-size:316.762px;font-family:'Iosevka Comfy Wide';-inkscape-font-specification:'Iosevka Comfy Wide Bold Expanded';stroke-width:0.950286"
       dx="0">DFS</tspan></text>
  <rect
     style="fill:#000000;fill-opacity:0;stroke:#000000;stroke-width:20.1246;stroke-linecap:round;stroke-linejoin:round;stroke-dasharray:none;stroke-opacity:1"
     id="rect112"
     width="1004.1773"
     height="491.8754"
     x="10.0623"
     y="10.0623" />
</svg>
