<?xml version="1.0" encoding="UTF-8" standalone="no"?>
<svg
   viewBox="0 0 1024 512"
   version="1.1"
   id="svg4"
   sodipodi:docname="route-dp.svg"
   width="1024"
   height="512"
   inkscape:version="1.2.2 (b0a8486541, 2022-12-01)"
   inkscape:export-filename="route-dp.png"
   inkscape:export-xdpi="5.9982319"
   inkscape:export-ydpi="5.9982319"
   xmlns:inkscape="http://www.inkscape.org/namespaces/inkscape"
   xmlns:sodipodi="http://sodipodi.sourceforge.net/DTD/sodipodi-0.dtd"
   xmlns="http://www.w3.org/2000/svg"
   xmlns:svg="http://www.w3.org/2000/svg">
  <defs
     id="defs8" />
  <sodipodi:namedview
     id="namedview6"
     pagecolor="#ffffff"
     bordercolor="#666666"
     borderopacity="1.0"
     inkscape:showpageshadow="2"
     inkscape:pageopacity="0.0"
     inkscape:pagecheckerboard="0"
     inkscape:deskcolor="#d1d1d1"
     showgrid="false"
     inkscape:zoom="1.5273438"
     inkscape:cx="676.01021"
     inkscape:cy="279.57032"
     inkscape:window-width="1920"
     inkscape:window-height="1011"
     inkscape:window-x="0"
     inkscape:window-y="0"
     inkscape:window-maximized="1"
     inkscape:current-layer="svg4" />
  <!--! Font Awesome Pro 6.3.0 by @fontawesome - https://fontawesome.com License - https://fontawesome.com/license (Commercial License) Copyright 2023 Fonticons, Inc. -->
  <path
     d="m 475.13299,119.04188 c 0,42.97061 -50.5889,107.08413 -72.4166,132.67818 -3.25276,3.76635 -8.04629,5.22153 -12.41183,4.27994 h -79.52131 c -15.15099,0 -27.39163,12.24063 -27.39163,27.39162 0,15.151 12.24064,27.39163 27.39163,27.39163 h 82.17487 c 45.36738,0 82.17487,36.80749 82.17487,82.17487 0,45.36738 -36.80749,82.17487 -82.17487,82.17487 H 156.36297 c 7.44709,-8.47428 16.52057,-19.34533 25.67964,-31.50036 5.39273,-7.19031 10.95665,-15.0654 16.26378,-23.28288 h 194.65173 c 15.15099,0 27.39163,-12.24064 27.39163,-27.39163 0,-15.15099 -12.24064,-27.39162 -27.39163,-27.39162 h -82.17487 c -45.36738,0 -82.17487,-36.8075 -82.17487,-82.17488 0,-45.36737 36.80749,-82.17487 82.17487,-82.17487 h 34.06833 c -17.97575,-26.96363 -34.06833,-57.9504 -34.06833,-82.17487 0,-45.367379 36.80749,-82.174874 82.17487,-82.174874 45.36738,0 82.17487,36.807495 82.17487,82.174874 z M 137.10323,455.53086 c -3.25275,3.68075 -6.16311,6.93351 -8.64548,9.67267 l -1.54078,1.71198 -0.1712,-0.1712 c -5.13593,3.93754 -12.49743,3.42395 -17.11976,-1.54078 C 88.055104,441.74945 36.867006,381.40228 36.867006,338.17487 36.867006,292.8075 73.674501,256 119.04188,256 c 45.36738,0 82.17487,36.8075 82.17487,82.17487 0,25.67965 -18.06135,57.35122 -37.23549,83.80125 -9.15907,12.58303 -18.57494,23.96767 -26.36444,32.95555 z m 9.33027,-117.35599 a 27.391624,27.391624 0 1 0 -54.783245,0 27.391624,27.391624 0 1 0 54.783245,0 z M 392.95812,146.4335 a 27.391624,27.391624 0 1 0 0,-54.783245 27.391624,27.391624 0 1 0 0,54.783245 z"
     id="path2"
     style="stroke-width:0.855988" />
  <text
     xml:space="preserve"
     style="font-size:400px;line-height:1.25;font-family:arial;-inkscape-font-specification:arial"
     x="524.40002"
     y="403"
     id="text114"><tspan
       sodipodi:role="line"
       id="tspan112"
       x="524.40002"
       y="403"
       style="font-style:normal;font-variant:normal;font-weight:bold;font-stretch:expanded;font-size:400px;font-family:'Iosevka Comfy Wide';-inkscape-font-specification:'Iosevka Comfy Wide Bold Expanded'">DP</tspan></text>
  <rect
     style="fill:#000000;fill-opacity:0;stroke:#000000;stroke-width:20.1246;stroke-linecap:round;stroke-linejoin:round;stroke-dasharray:none;stroke-opacity:1"
     id="rect112"
     width="1004.1773"
     height="491.8754"
     x="10.0623"
     y="10.0623" />
</svg>
