<?xml version="1.0" encoding="UTF-8" standalone="no"?>
<svg
   viewBox="0 0 512 512"
   version="1.1"
   id="svg3714"
   sodipodi:docname="step.svg"
   width="512"
   height="512"
   inkscape:version="1.2.2 (b0a8486541, 2022-12-01)"
   inkscape:export-filename="step.png"
   inkscape:export-xdpi="6.0000005"
   inkscape:export-ydpi="6.0000005"
   xmlns:inkscape="http://www.inkscape.org/namespaces/inkscape"
   xmlns:sodipodi="http://sodipodi.sourceforge.net/DTD/sodipodi-0.dtd"
   xmlns="http://www.w3.org/2000/svg"
   xmlns:svg="http://www.w3.org/2000/svg">
  <defs
     id="defs3718" />
  <sodipodi:namedview
     id="namedview3716"
     pagecolor="#ffffff"
     bordercolor="#666666"
     borderopacity="1.0"
     inkscape:showpageshadow="2"
     inkscape:pageopacity="0.0"
     inkscape:pagecheckerboard="0"
     inkscape:deskcolor="#d1d1d1"
     showgrid="false"
     inkscape:zoom="1.5273438"
     inkscape:cx="4.2557545"
     inkscape:cy="256"
     inkscape:window-width="1920"
     inkscape:window-height="1011"
     inkscape:window-x="0"
     inkscape:window-y="0"
     inkscape:window-maximized="1"
     inkscape:current-layer="svg3714" />
  <!--! Font Awesome Pro 6.3.0 by @fontawesome - https://fontawesome.com License - https://fontawesome.com/license (Commercial License) Copyright 2023 Fonticons, Inc. -->
  <path
     d="m 148.5,440.61366 c -9.5,7.9 -22.8,9.7 -34.1,4.4 -11.3,-5.3 -18.4,-16.6 -18.4,-29 V 96.013665 c 0,-12.4 7.2,-23.7 18.4,-29 11.2,-5.3 24.5,-3.6 34.1,4.4 l 192,159.999995 11.5,9.6 V 96.013665 c 0,-17.7 14.3,-32 32,-32 17.7,0 32,14.3 32,32 V 416.01366 c 0,17.7 -14.3,32 -32,32 -17.7,0 -32,-14.3 -32,-32 v -145 l -11.5,9.6 z"
     id="path3712" />
  <rect
     style="fill:#000000;fill-opacity:0;stroke:#000000;stroke-width:20.1246;stroke-linecap:round;stroke-linejoin:round;stroke-dasharray:none;stroke-opacity:1"
     id="rect112"
     width="491.87537"
     height="491.8754"
     x="10.0623"
     y="10.0623" />
</svg>
