<?xml version="1.0" encoding="UTF-8" standalone="no"?>
<svg
   viewBox="0 0 512 512"
   version="1.1"
   id="svg236"
   sodipodi:docname="trash.svg"
   width="512"
   height="512"
   inkscape:version="1.2.2 (b0a8486541, 2022-12-01)"
   inkscape:export-filename="trash.png"
   inkscape:export-xdpi="6.0000005"
   inkscape:export-ydpi="6.0000005"
   xmlns:inkscape="http://www.inkscape.org/namespaces/inkscape"
   xmlns:sodipodi="http://sodipodi.sourceforge.net/DTD/sodipodi-0.dtd"
   xmlns="http://www.w3.org/2000/svg"
   xmlns:svg="http://www.w3.org/2000/svg">
  <defs
     id="defs240" />
  <sodipodi:namedview
     id="namedview238"
     pagecolor="#ffffff"
     bordercolor="#666666"
     borderopacity="1.0"
     inkscape:showpageshadow="2"
     inkscape:pageopacity="0.0"
     inkscape:pagecheckerboard="0"
     inkscape:deskcolor="#d1d1d1"
     showgrid="false"
     inkscape:zoom="1.5273438"
     inkscape:cx="224.90026"
     inkscape:cy="256"
     inkscape:window-width="1920"
     inkscape:window-height="1011"
     inkscape:window-x="0"
     inkscape:window-y="0"
     inkscape:window-maximized="1"
     inkscape:current-layer="svg236" />
  <!--! Font Awesome Pro 6.3.0 by @fontawesome - https://fontawesome.com License - https://fontawesome.com/license (Commercial License) Copyright 2023 Fonticons, Inc. -->
  <path
     d="m 191.60811,83.200598 -5.22096,10.369415 H 116.7743 c -12.83487,0 -23.204287,10.369417 -23.204287,23.204287 0,12.83487 10.369417,23.20428 23.204287,23.20428 h 278.4514 c 12.83487,0 23.20429,-10.36941 23.20429,-23.20428 0,-12.83487 -10.36942,-23.204287 -23.20429,-23.204287 H 325.61285 L 320.39189,83.200598 C 316.47616,75.296639 308.42718,70.365729 299.65306,70.365729 h -87.30612 c -8.77412,0 -16.8231,4.93091 -20.73883,12.834869 z M 395.2257,163.18286 H 116.7743 l 15.37283,245.82039 c 1.16022,18.34588 16.38803,32.63102 34.73392,32.63102 h 178.2379 c 18.34589,0 33.5737,-14.28514 34.73392,-32.63102 z"
     id="path234"
     style="stroke-width:0.725134" />
  <rect
     style="fill:#000000;fill-opacity:0;stroke:#000000;stroke-width:20.1246;stroke-linecap:round;stroke-linejoin:round;stroke-dasharray:none;stroke-opacity:1"
     id="rect112"
     width="491.87537"
     height="491.8754"
     x="10.0623"
     y="10.0623" />
</svg>
